<?xml version="1.0" encoding="utf-8"?>
<!-- Generator: Adobe Illustrator 28.1.0, SVG Export Plug-In . SVG Version: 6.00 Build 0)  -->
<svg version="1.1" id="Layer_1" xmlns="http://www.w3.org/2000/svg" xmlns:xlink="http://www.w3.org/1999/xlink" x="0px" y="0px"
	 viewBox="0 0 153.95 153.47" style="enable-background:new 0 0 153.95 153.47;" xml:space="preserve">
<style type="text/css">
	.st0{fill:#3057A5;}
</style>
<path class="st0" d="M154.39,77.2c0.19-19.94-12.12-38.91-30.17-47.02C116.11,12.12,97.14-0.19,77.2,0
	C57.25-0.19,38.29,12.12,30.18,30.18C12.12,38.28-0.19,57.25,0,77.2c-0.19,19.94,12.12,38.91,30.17,47.02
	c8.11,18.06,27.08,30.37,47.02,30.17c19.94,0.19,38.91-12.12,47.02-30.17C142.27,116.11,154.58,97.14,154.39,77.2z M122.97,53.76
	c0.4,7.02-0.88,13.76-3.44,19.86c-5.25-7.58-12.48-13.79-21.04-17.71c-3.92-8.56-10.13-15.79-17.71-21.04
	c6.1-2.57,12.84-3.84,19.86-3.44c6.31,0.27,12.32,1.9,17.75,4.58C121.06,41.44,122.7,47.44,122.97,53.76z M122.97,100.63
	c-0.27,6.31-1.9,12.32-4.58,17.75c-5.43,2.68-11.44,4.31-17.75,4.59c-7.02,0.4-13.76-0.88-19.86-3.44
	c7.58-5.25,13.79-12.48,17.71-21.04c8.56-3.92,15.79-10.13,21.04-17.71C122.09,86.88,123.37,93.61,122.97,100.63z M31.42,100.63
	c-0.4-7.02,0.88-13.76,3.44-19.86c5.25,7.58,12.48,13.79,21.04,17.71c3.92,8.56,10.13,15.79,17.71,21.04
	c-6.1,2.57-12.84,3.84-19.86,3.44c-6.31-0.27-12.32-1.9-17.75-4.58C33.33,112.95,31.69,106.95,31.42,100.63z M31.42,53.76
	c0.27-6.31,1.9-12.32,4.58-17.75c5.43-2.68,11.44-4.31,17.75-4.59c7.02-0.4,13.76,0.88,19.86,3.44
	c-7.58,5.25-13.79,12.48-17.71,21.04c-8.56,3.92-15.79,10.13-21.04,17.71C32.3,67.52,31.02,60.78,31.42,53.76z M77.2,51.33
	c-6.67-0.02-12.99,1.23-18.75,3.49C62.8,47.07,69.35,40.7,77.2,36.56c7.84,4.14,14.4,10.51,18.75,18.26
	C90.18,52.56,83.87,51.31,77.2,51.33z M97.18,57.21c2.95,6.05,4.61,12.84,4.57,19.99c0.03,7.15-1.62,13.93-4.57,19.99
	c-6.05,2.95-12.84,4.61-19.99,4.57c-7.15,0.03-13.93-1.62-19.99-4.57c-2.95-6.05-4.61-12.84-4.57-19.99
	c-0.03-7.15,1.62-13.93,4.57-19.99c6.05-2.95,12.84-4.61,19.99-4.57C84.35,52.6,91.13,54.26,97.18,57.21z M54.83,58.44
	c-2.27,5.77-3.52,12.08-3.49,18.75c-0.02,6.67,1.23,12.99,3.49,18.75C47.07,91.59,40.7,85.04,36.56,77.2
	C40.7,69.35,47.07,62.8,54.83,58.44z M58.44,99.56c5.77,2.27,12.08,3.52,18.75,3.49c6.67,0.02,12.99-1.23,18.75-3.49
	c-4.36,7.75-10.91,14.12-18.75,18.26C69.35,113.69,62.8,107.32,58.44,99.56z M99.56,95.95c2.27-5.77,3.52-12.08,3.49-18.75
	c0.02-6.67-1.23-12.99-3.49-18.75c7.75,4.36,14.12,10.91,18.26,18.75C113.69,85.04,107.32,91.59,99.56,95.95z M77.2,10.21
	c13.71-0.13,26.33,6.23,34.84,16.18c-12.36-2.25-24.61,0.27-34.84,6.2c-10.23-5.93-22.48-8.44-34.84-6.2
	C50.86,16.44,63.48,10.08,77.2,10.21z M10.21,77.2c-0.13-13.71,6.23-26.33,16.18-34.84c-2.25,12.36,0.27,24.61,6.2,34.84
	c-5.93,10.23-8.44,22.48-6.2,34.84C16.44,103.53,10.08,90.91,10.21,77.2z M77.2,144.18c-13.71,0.13-26.33-6.23-34.84-16.18
	c12.36,2.25,24.61-0.27,34.84-6.2c10.23,5.93,22.48,8.44,34.84,6.2C103.53,137.95,90.91,144.31,77.2,144.18z M128,112.04
	c2.25-12.36-0.27-24.61-6.2-34.84c5.93-10.23,8.44-22.48,6.2-34.84c9.95,8.51,16.31,21.13,16.18,34.84
	C144.31,90.91,137.95,103.53,128,112.04z"/>
</svg>
