<?xml version="1.0" standalone="no"?>
<!DOCTYPE svg PUBLIC "-//W3C//DTD SVG 20010904//EN"
 "http://www.w3.org/TR/2001/REC-SVG-20010904/DTD/svg10.dtd">
<svg version="1.0" xmlns="http://www.w3.org/2000/svg"
 width="272.000000pt" height="267.000000pt" viewBox="0 0 272.000000 267.000000"
 preserveAspectRatio="xMidYMid meet">
<metadata>
Created by potrace 1.10, written by Peter Selinger 2001-2011
</metadata>
<g transform="translate(0.000000,267.000000) scale(0.100000,-0.100000)"
fill="#000000" stroke="none">
<path d="M1238 2580 c-261 -47 -472 -195 -605 -422 -25 -43 -49 -78 -54 -78
-25 0 -143 -83 -211 -148 -181 -173 -268 -378 -268 -629 0 -230 88 -441 252
-605 56 -56 187 -150 228 -163 10 -3 22 -15 25 -25 3 -10 28 -53 55 -94 112
-171 282 -296 486 -357 96 -29 283 -36 390 -16 232 44 469 208 574 397 44 78
61 96 140 140 169 94 311 281 377 497 23 78 26 104 26 233 0 129 -3 155 -26
233 -70 228 -209 403 -410 517 -36 20 -64 44 -74 64 -107 209 -321 380 -553
441 -74 19 -281 28 -352 15z m306 -35 c239 -50 440 -200 571 -427 21 -38 43
-57 107 -95 182 -108 306 -267 373 -474 35 -108 45 -287 22 -395 -34 -160
-114 -309 -227 -425 -69 -70 -176 -150 -221 -164 -10 -3 -38 -39 -63 -79 -58
-96 -67 -107 -157 -196 -88 -87 -194 -151 -319 -194 -73 -25 -104 -30 -221
-34 -179 -6 -284 19 -449 108 -87 46 -241 200 -300 299 -30 50 -56 81 -84 99
-150 93 -215 151 -291 254 -104 140 -155 297 -156 480 -1 152 19 236 89 378
50 103 65 124 151 210 62 62 121 110 166 136 63 36 76 48 131 133 103 156 217
257 370 327 148 68 350 92 508 59z"/>
<path d="M1230 2436 c-133 -30 -235 -79 -349 -168 -65 -51 -100 -103 -82 -121
6 -6 64 -11 133 -12 117 -2 242 -23 278 -46 11 -8 9 -9 -10 -4 -55 13 -199 16
-270 6 -102 -14 -203 -46 -239 -76 -65 -55 -107 -232 -99 -415 5 -99 4 -111
-7 -85 -21 48 -26 92 -30 225 -2 69 -4 129 -4 135 -1 5 -7 3 -13 -4 -9 -8 -13
-50 -12 -139 0 -141 20 -232 76 -354 l30 -67 -35 -83 c-41 -95 -64 -183 -73
-285 -8 -88 3 -206 19 -200 8 2 11 34 9 103 -2 64 2 126 13 177 27 131 34 130
28 -3 -7 -147 11 -259 58 -356 27 -57 33 -63 89 -87 98 -43 208 -61 335 -54
60 3 119 8 130 11 11 4 4 -1 -15 -10 -58 -27 -179 -46 -275 -42 -105 4 -130
-12 -40 -26 120 -18 320 20 453 86 l47 23 70 -32 c118 -55 213 -75 357 -77 90
-1 131 3 139 12 7 6 9 12 4 13 -6 0 -66 1 -135 3 -110 2 -229 22 -248 41 -3 2
44 2 104 -2 126 -7 224 7 327 45 85 31 107 58 143 177 21 73 27 112 28 205 0
63 -2 135 -6 160 -7 43 -7 43 14 -15 16 -46 22 -90 25 -190 2 -71 6 -141 10
-155 l6 -25 7 25 c5 14 8 75 9 135 1 130 -22 239 -73 351 l-35 74 35 74 c51
112 74 221 73 351 0 108 -10 168 -22 135 -3 -8 -8 -78 -10 -155 -3 -100 -9
-155 -22 -193 -10 -29 -20 -51 -22 -49 -1 2 2 40 8 84 21 148 -24 386 -86 447
-74 74 -356 118 -515 81 -54 -13 7 14 70 31 46 12 100 17 187 16 157 -1 178
15 42 33 -106 13 -350 -38 -446 -95 l-33 -19 -72 34 c-109 52 -215 76 -338 78
-58 0 -121 -2 -140 -6 -35 -8 -35 -7 32 55 183 173 424 242 666 192 136 -28
260 -93 380 -200 67 -60 70 -34 4 30 -174 169 -455 252 -682 202z m3 -396 c43
-13 77 -26 77 -30 0 -4 -18 -20 -41 -35 -62 -44 -143 -137 -201 -231 -41 -67
-61 -90 -93 -106 -97 -49 -228 -162 -280 -241 -23 -36 -28 -28 -55 84 -36 151
-22 336 35 465 21 47 27 52 81 72 154 58 330 66 477 22z m716 -5 c46 -15 94
-37 106 -49 27 -27 61 -127 76 -226 17 -112 1 -254 -40 -364 l-11 -28 -32 43
c-62 86 -228 222 -298 244 -10 3 -22 15 -25 25 -23 74 -213 298 -266 315 -35
11 -20 23 59 43 114 31 118 31 237 27 84 -3 130 -10 194 -30z m-546 -1 c34 6
36 5 26 -12 -8 -13 -24 -19 -55 -19 -34 0 -44 5 -53 23 -10 22 -9 23 17 13 15
-6 44 -8 65 -5z m44 -93 c66 -45 163 -142 213 -215 26 -39 29 -48 14 -41 -152
64 -388 71 -550 16 -30 -10 -54 -16 -54 -13 0 15 118 157 158 191 62 51 134
100 148 101 7 0 38 -18 71 -39z m118 -251 c136 -35 145 -42 180 -140 28 -80
30 -94 29 -240 0 -143 -2 -162 -27 -237 -31 -93 -43 -105 -135 -133 -156 -48
-328 -46 -485 6 -76 25 -79 28 -99 73 -68 160 -73 358 -12 542 24 75 26 77 74
98 127 55 331 68 475 31z m-584 -142 c-23 -66 -25 -88 -26 -233 0 -121 4 -173
17 -215 35 -116 38 -108 -18 -69 -100 69 -244 234 -244 279 0 23 63 112 122
172 48 49 155 136 169 137 3 1 -6 -32 -20 -71z m954 -79 c35 -37 75 -88 90
-113 l27 -46 -27 -45 c-35 -61 -137 -169 -209 -222 -32 -24 -60 -42 -62 -40
-2 2 5 26 15 53 56 148 50 396 -14 548 -14 33 108 -59 180 -135z m-1250 -161
c-1 -28 -7 -43 -19 -50 -17 -10 -18 -7 -12 25 3 19 2 46 -3 60 -10 25 -9 26
12 16 19 -8 23 -18 22 -51z m1415 23 c-7 -15 -8 -27 0 -40 16 -32 13 -43 -10
-29 -26 16 -27 75 -2 94 21 15 27 3 12 -25z m-1316 -207 c50 -49 111 -99 159
-127 72 -42 82 -52 123 -122 49 -82 164 -211 222 -247 l36 -22 -74 -24 c-148
-47 -339 -40 -494 18 -54 21 -60 26 -82 75 -35 76 -54 175 -54 285 0 95 7 135
37 240 l16 55 15 -25 c9 -14 52 -61 96 -106z m1320 61 c48 -153 43 -328 -12
-483 l-29 -77 -69 -27 c-98 -38 -191 -52 -309 -45 -82 5 -226 35 -241 50 -3 2
23 26 57 52 70 55 161 165 203 246 25 47 39 61 81 82 72 35 195 135 246 201
24 31 46 56 50 56 3 0 13 -25 23 -55z m-773 -303 c123 -5 217 7 306 38 l53 19
-17 -31 c-48 -83 -252 -268 -296 -268 -24 0 -151 95 -201 151 -44 49 -106 132
-106 142 0 2 33 -8 73 -21 54 -18 101 -26 188 -30z m91 -277 c15 -20 7 -26
-26 -20 -20 4 -43 2 -56 -5 -20 -11 -22 -10 -17 5 4 9 7 20 7 25 0 11 83 7 92
-5z"/>
<path d="M451 1843 c-136 -142 -211 -335 -211 -543 0 -183 78 -383 199 -511
59 -62 91 -83 91 -61 0 4 -21 28 -46 52 -90 89 -168 229 -199 362 -21 91 -19
258 4 350 32 124 100 245 194 346 38 39 45 52 32 52 -10 0 -39 -21 -64 -47z"/>
<path d="M2272 1839 c105 -123 149 -200 190 -329 19 -61 23 -97 23 -195 0
-211 -56 -355 -202 -523 -31 -35 -54 -65 -51 -67 11 -12 70 41 120 106 67 89
96 147 134 259 26 77 28 97 28 220 -1 119 -4 145 -28 219 -43 130 -100 229
-182 313 -63 65 -88 63 -32 -3z"/>
<path d="M790 450 c0 -20 84 -101 149 -144 87 -58 165 -93 264 -118 114 -29
297 -22 407 16 124 43 222 101 304 180 80 78 53 83 -36 6 -99 -83 -212 -143
-328 -171 -71 -18 -103 -21 -205 -16 -77 3 -142 12 -181 25 -100 32 -215 98
-291 167 -72 66 -83 73 -83 55z"/>
</g>
</svg>
